# xmcd CD database file
#
# Track frame offsets:
#	150
#	19803
#	47677
#	85184
#	112637
#	122635
#	142268
#	168993
#	187225
#
# Disc length: 2761 seconds
#
# Revision: 0
# Processed by: cddbd v1.5.2PL0 Copyright (c) Steve Scherf et al.
# Submitted via: NeoAudio 9.9.9
#
DISCID=750ac709
DTITLE=The Leadbelly Project - A Hommage to Huddie Ledbetter
DYEAR=2010
DGENRE=Blues
TTITLE0=Good Morning Blues
TTITLE1=Bourgeois Blues
TTITLE2=Midnight Special
TTITLE3=Looky Looky Yonder
TTITLE4=Bring me Lil water Silvy
TTITLE5=Do´Howard
TTITLE6=Green Corn
TTITLE7=Gallis Po´
TTITLE8=Leaving Blues
EXTD=YEAR: 2010
EXTT0=
EXTT1=
EXTT2=
EXTT3=
EXTT4=
EXTT5=
EXTT6=
EXTT7=
EXTT8=
PLAYORDER=
